<svg fill="none" height="40" viewBox="0 0 40 40" width="40" xmlns="http://www.w3.org/2000/svg"><path d="m31.576 14.8987c1.4187-.0007 2.8074.4053 3.9993 1.1691 1.1919.7639 2.1364 1.8531 2.7199 3.137.5835 1.2838.7813 2.7076.5696 4.1003s-.8239 2.6951-1.7631 3.7508v8.4119c.0005.2348-.0597.4658-.175.6709-.1152.2051-.2815.3773-.483.5003-.2015.1229-.4314.1925-.6677.202-.2363.0094-.4711-.0415-.6819-.148l-.1658-.1005-3.3523-2.3261-3.3523 2.3261c-.1936.1342-.4186.2169-.6536.2402-.2349.0233-.472-.0136-.6885-.1071-.2165-.0936-.4053-.2407-.5482-.4272-.143-.1866-.2354-.4064-.2685-.6386l-.0128-.192v-8.4156c-.9379-1.0557-1.5491-2.3576-1.7602-3.7495-.2112-1.3919-.0133-2.8148.5699-4.0979.5832-1.283 1.5268-2.3718 2.7178-3.1356 1.1909-.7638 2.5786-1.1702 3.9964-1.1705zm2.7629 14.0992c-.8779.3525-1.816.5331-2.7629.5322-.9469.0009-1.8851-.1797-2.7629-.5322v3.8384l1.9727-1.366c.2019-.1405.4381-.2248.6839-.2441.2459-.0193.4924.0271.7141.1344l.1842.1097 1.9709 1.366zm-.4605-26.89268c1.2899-.00006 2.5312.48843 3.4707 1.36584.9396.87741 1.5066 2.07762 1.5854 3.35584l.0092.30722.0018 9.59328c-.747-.9873-1.6866-1.8151-2.7629-2.434l-.0018-7.15928c.0002-.5659-.2109-1.11179-.5927-1.53201-.3818-.42023-.907-.68493-1.474-.74288l-.2357-.01097h-26.70789c-.57-.00026-1.11983.2094-1.5431.58842s-.68988.90044-.74825 1.46337l-.01105.23407v17.37258c0 1.1831.90622 2.1578 2.06663 2.273l.23577.0128 16.43359.0018.2266.3713.2468.3584.1308.1719-.0019 1.8397h-17.03589c-1.29017 0-2.53174-.4888-3.47133-1.3665-.93959-.8778-1.5064-2.0785-1.58475-3.3571l-.00921-.3053v-17.37258c-.00006-1.28061.49197-2.513 1.37572-3.4458.88376-.93279 2.09266-1.49572 3.38013-1.57395l.30944-.00915zm-2.3024 15.53658c-1.2215 0-2.393.4817-3.2568 1.3393-.8637.8575-1.3489 2.0206-1.3489 3.2333s.4852 2.3758 1.3489 3.2333c.8638.8576 2.0353 1.3393 3.2568 1.3393s2.393-.4817 3.2567-1.3393c.8638-.8575 1.349-2.0206 1.349-3.2333s-.4852-2.3758-1.349-3.2333c-.8637-.8576-2.0352-1.3393-3.2567-1.3393zm-12.433 1.8287c.35.0001.6869.1321.9427.3693.2557.2372.4113.562.4351.9087.0239.3467-.0857.6894-.3066.959-.2209.2695-.5366.4458-.8833.4932l-.1879.0128h-8.2886c-.3501-.0001-.687-.1321-.94273-.3694-.25575-.2372-.41126-.562-.43512-.9087-.02386-.3466.08572-.6894.3066-.959.22085-.2695.53655-.4458.88335-.4931l.1879-.0128zm11.0515-10.05784c.35.00011.687.13212.9427.36935.2558.23719.4113.56199.4351.90869.0239.3467-.0857.6894-.3066.959-.2208.2696-.5365.4458-.8833.4932l-.1879.0128h-19.3401c-.3501-.0001-.687-.1321-.94273-.3693-.25575-.2373-.41126-.5621-.43512-.9087-.02386-.3467.08572-.6895.3066-.95904.22085-.26956.53655-.44583.88335-.4932l.1879-.0128z" fill="#247ba0"/></svg>